<svg xmlns="http://www.w3.org/2000/svg" viewBox="0 0 1000 1000" role="img" aria-labelledby="title desc" preserveAspectRatio="none" shape-rendering="geometricPrecision">
  <title id="title">Carte vectorielle officielle stylisée de la France métropolitaine</title>
  <desc id="desc">Carte vectorielle sombre de la France métropolitaine, avec silhouette détaillée, Corse, fond noir et décor discret.</desc>
  <!-- Geometry reference: public-domain Wikimedia Commons France department SVG family, simplified and restyled for the game. Coordinate projection: lon/lat-like normalized canvas, lon [-5.35,10.13], lat [41.02,51.27]. -->
  <defs>
    <radialGradient id="seaGlow" cx="50%" cy="48%" r="72%">
      <stop offset="0" stop-color="#07111a" stop-opacity="1"/>
      <stop offset="0.60" stop-color="#02060a" stop-opacity="1"/>
      <stop offset="1" stop-color="#000000" stop-opacity="1"/>
    </radialGradient>
    <linearGradient id="land" x1="18%" y1="8%" x2="82%" y2="94%">
      <stop offset="0" stop-color="#1d2528"/>
      <stop offset="0.46" stop-color="#11191b"/>
      <stop offset="1" stop-color="#0b1214"/>
    </linearGradient>
    <filter id="softShadow" x="-20%" y="-20%" width="140%" height="140%">
      <feDropShadow dx="0" dy="14" stdDeviation="18" flood-color="#000000" flood-opacity="0.75"/>
    </filter>
    <filter id="goldGlow" x="-25%" y="-25%" width="150%" height="150%">
      <feGaussianBlur stdDeviation="2.2" result="blur"/>
      <feMerge><feMergeNode in="blur"/><feMergeNode in="SourceGraphic"/></feMerge>
    </filter>
    <pattern id="noiseDots" width="34" height="34" patternUnits="userSpaceOnUse">
      <circle cx="7" cy="8" r=".75" fill="#ffffff" opacity=".045"/>
      <circle cx="25" cy="19" r=".55" fill="#ffffff" opacity=".035"/>
    </pattern>
  </defs>

  <rect width="1000" height="1000" fill="#000"/>
  <rect width="1000" height="1000" fill="url(#seaGlow)"/>
  <rect width="1000" height="1000" fill="url(#noiseDots)" opacity=".80"/>

  <g class="map-decor" fill="none" stroke="#6f5b38" stroke-width="1.2" stroke-linecap="round" opacity=".28">
    <path d="M 30 160 C 60 144, 90 176, 120 160 S 180 176, 210 160"/>
    <path d="M 810 175 C 840 152, 875 193, 910 170 S 965 180, 990 160"/>
    <path d="M 30 220 C 60 204, 90 236, 120 220 S 180 236, 210 220"/>
    <path d="M 810 235 C 840 212, 875 253, 910 230 S 965 240, 990 220"/>
    <path d="M 30 280 C 60 264, 90 296, 120 280 S 180 296, 210 280"/>
    <path d="M 810 295 C 840 272, 875 313, 910 290 S 965 300, 990 280"/>
    <path d="M 30 355 C 60 339, 90 371, 120 355 S 180 371, 210 355"/>
    <path d="M 810 370 C 840 347, 875 388, 910 365 S 965 375, 990 355"/>
    <path d="M 30 430 C 60 414, 90 446, 120 430 S 180 446, 210 430"/>
    <path d="M 810 445 C 840 422, 875 463, 910 440 S 965 450, 990 430"/>
    <path d="M 30 505 C 60 489, 90 521, 120 505 S 180 521, 210 505"/>
    <path d="M 810 520 C 840 497, 875 538, 910 515 S 965 525, 990 505"/>
    <path d="M 30 580 C 60 564, 90 596, 120 580 S 180 596, 210 580"/>
    <path d="M 810 595 C 840 572, 875 613, 910 590 S 965 600, 990 580"/>
    <path d="M 30 655 C 60 639, 90 671, 120 655 S 180 671, 210 655"/>
    <path d="M 810 670 C 840 647, 875 688, 910 665 S 965 675, 990 655"/>
    <path d="M 30 730 C 60 714, 90 746, 120 730 S 180 746, 210 730"/>
    <path d="M 810 745 C 840 722, 875 763, 910 740 S 965 750, 990 730"/>
    <path d="M 30 805 C 60 789, 90 821, 120 805 S 180 821, 210 805"/>
    <path d="M 810 820 C 840 797, 875 838, 910 815 S 965 825, 990 805"/>
    <path d="M 30 880 C 60 864, 90 896, 120 880 S 180 896, 210 880"/>
    <path d="M 810 895 C 840 872, 875 913, 910 890 S 965 900, 990 880"/>
    <circle cx="885" cy="140" r="42" opacity=".72"/>
    <path d="M885 84 L898 140 L885 196 L872 140 Z"/>
    <path d="M829 140 L885 127 L941 140 L885 153 Z"/>
    <path d="M855 110 L915 170 M915 110 L855 170" opacity=".62"/>
    <path d="M70 875 C95 842, 122 842, 148 872 C118 856, 93 880, 78 925" opacity=".48"/>
    <path d="M53 928 C82 903, 125 906, 157 943" opacity=".48"/>
  </g>

  <g id="france-vector" filter="url(#softShadow)">
    <path id="france-main-glow" d="M 509.690 17.561 L 527.778 24.390 L 551.034 37.073 L 581.395 45.854 L 614.987 49.756 L 650.517 80.000 L 669.897 107.317 L 695.736 131.707 L 715.762 167.805 L 739.664 173.659 L 744.832 201.951 L 756.460 209.756 L 786.822 206.829 L 819.121 206.829 L 854.651 225.366 L 874.031 242.927 L 861.111 272.195 L 847.545 299.512 L 837.855 332.683 L 835.271 359.024 L 812.016 368.780 L 790.052 374.634 L 776.486 410.732 L 753.876 438.049 L 736.434 473.171 L 744.832 501.463 L 778.424 521.951 L 792.636 555.122 L 796.512 594.146 L 781.008 621.463 L 794.574 655.610 L 809.432 689.756 L 838.501 717.073 L 843.669 732.683 L 825.581 736.585 L 812.016 738.537 L 795.866 742.439 L 779.716 753.171 L 752.584 768.780 L 728.036 797.073 L 704.134 789.268 L 692.506 777.561 L 673.773 782.439 L 658.915 775.610 L 645.349 765.854 L 625.969 762.927 L 607.235 753.171 L 584.625 756.098 L 560.078 776.585 L 541.990 789.268 L 527.778 816.585 L 505.814 858.537 L 477.390 867.317 L 450.904 848.780 L 430.233 836.098 L 395.995 828.293 L 356.589 836.098 L 318.475 828.293 L 294.574 819.512 L 266.796 797.073 L 240.956 770.732 L 232.558 764.878 L 243.540 741.463 L 257.752 697.561 L 268.088 650.732 L 270.672 607.805 L 277.132 572.683 L 270.026 543.415 L 260.336 521.951 L 270.672 497.561 L 255.168 477.073 L 232.558 460.488 L 213.178 438.049 L 207.364 411.707 L 189.276 395.122 L 171.189 385.366 L 145.995 369.756 L 120.155 355.122 L 85.917 338.537 L 56.848 317.073 L 40.698 291.707 L 49.742 272.195 L 76.227 257.561 L 105.943 246.829 L 142.119 236.098 L 171.835 258.537 L 198.966 250.732 L 224.160 255.610 L 245.478 258.537 L 259.690 240.976 L 271.318 211.707 L 295.220 193.171 L 327.519 191.220 L 354.651 184.390 L 385.659 171.707 L 414.083 129.756 L 442.506 94.634 L 456.718 51.707 L 479.974 35.122 L 496.770 23.415 L 509.690 17.561 Z" fill="none" stroke="#b88748" stroke-width="10" stroke-linejoin="round" opacity=".18" filter="url(#goldGlow)"/>
    <path id="france-main" d="M 509.690 17.561 L 527.778 24.390 L 551.034 37.073 L 581.395 45.854 L 614.987 49.756 L 650.517 80.000 L 669.897 107.317 L 695.736 131.707 L 715.762 167.805 L 739.664 173.659 L 744.832 201.951 L 756.460 209.756 L 786.822 206.829 L 819.121 206.829 L 854.651 225.366 L 874.031 242.927 L 861.111 272.195 L 847.545 299.512 L 837.855 332.683 L 835.271 359.024 L 812.016 368.780 L 790.052 374.634 L 776.486 410.732 L 753.876 438.049 L 736.434 473.171 L 744.832 501.463 L 778.424 521.951 L 792.636 555.122 L 796.512 594.146 L 781.008 621.463 L 794.574 655.610 L 809.432 689.756 L 838.501 717.073 L 843.669 732.683 L 825.581 736.585 L 812.016 738.537 L 795.866 742.439 L 779.716 753.171 L 752.584 768.780 L 728.036 797.073 L 704.134 789.268 L 692.506 777.561 L 673.773 782.439 L 658.915 775.610 L 645.349 765.854 L 625.969 762.927 L 607.235 753.171 L 584.625 756.098 L 560.078 776.585 L 541.990 789.268 L 527.778 816.585 L 505.814 858.537 L 477.390 867.317 L 450.904 848.780 L 430.233 836.098 L 395.995 828.293 L 356.589 836.098 L 318.475 828.293 L 294.574 819.512 L 266.796 797.073 L 240.956 770.732 L 232.558 764.878 L 243.540 741.463 L 257.752 697.561 L 268.088 650.732 L 270.672 607.805 L 277.132 572.683 L 270.026 543.415 L 260.336 521.951 L 270.672 497.561 L 255.168 477.073 L 232.558 460.488 L 213.178 438.049 L 207.364 411.707 L 189.276 395.122 L 171.189 385.366 L 145.995 369.756 L 120.155 355.122 L 85.917 338.537 L 56.848 317.073 L 40.698 291.707 L 49.742 272.195 L 76.227 257.561 L 105.943 246.829 L 142.119 236.098 L 171.835 258.537 L 198.966 250.732 L 224.160 255.610 L 245.478 258.537 L 259.690 240.976 L 271.318 211.707 L 295.220 193.171 L 327.519 191.220 L 354.651 184.390 L 385.659 171.707 L 414.083 129.756 L 442.506 94.634 L 456.718 51.707 L 479.974 35.122 L 496.770 23.415 L 509.690 17.561 Z" fill="url(#land)" stroke="#c9a063" stroke-width="2.8" stroke-linejoin="round" vector-effect="non-scaling-stroke"/>
    <path id="france-main-highlight" d="M 509.690 17.561 L 527.778 24.390 L 551.034 37.073 L 581.395 45.854 L 614.987 49.756 L 650.517 80.000 L 669.897 107.317 L 695.736 131.707 L 715.762 167.805 L 739.664 173.659 L 744.832 201.951 L 756.460 209.756 L 786.822 206.829 L 819.121 206.829 L 854.651 225.366 L 874.031 242.927 L 861.111 272.195 L 847.545 299.512 L 837.855 332.683 L 835.271 359.024 L 812.016 368.780 L 790.052 374.634 L 776.486 410.732 L 753.876 438.049 L 736.434 473.171 L 744.832 501.463 L 778.424 521.951 L 792.636 555.122 L 796.512 594.146 L 781.008 621.463 L 794.574 655.610 L 809.432 689.756 L 838.501 717.073 L 843.669 732.683 L 825.581 736.585 L 812.016 738.537 L 795.866 742.439 L 779.716 753.171 L 752.584 768.780 L 728.036 797.073 L 704.134 789.268 L 692.506 777.561 L 673.773 782.439 L 658.915 775.610 L 645.349 765.854 L 625.969 762.927 L 607.235 753.171 L 584.625 756.098 L 560.078 776.585 L 541.990 789.268 L 527.778 816.585 L 505.814 858.537 L 477.390 867.317 L 450.904 848.780 L 430.233 836.098 L 395.995 828.293 L 356.589 836.098 L 318.475 828.293 L 294.574 819.512 L 266.796 797.073 L 240.956 770.732 L 232.558 764.878 L 243.540 741.463 L 257.752 697.561 L 268.088 650.732 L 270.672 607.805 L 277.132 572.683 L 270.026 543.415 L 260.336 521.951 L 270.672 497.561 L 255.168 477.073 L 232.558 460.488 L 213.178 438.049 L 207.364 411.707 L 189.276 395.122 L 171.189 385.366 L 145.995 369.756 L 120.155 355.122 L 85.917 338.537 L 56.848 317.073 L 40.698 291.707 L 49.742 272.195 L 76.227 257.561 L 105.943 246.829 L 142.119 236.098 L 171.835 258.537 L 198.966 250.732 L 224.160 255.610 L 245.478 258.537 L 259.690 240.976 L 271.318 211.707 L 295.220 193.171 L 327.519 191.220 L 354.651 184.390 L 385.659 171.707 L 414.083 129.756 L 442.506 94.634 L 456.718 51.707 L 479.974 35.122 L 496.770 23.415 L 509.690 17.561 Z" fill="none" stroke="#f5d28f" stroke-width=".9" stroke-linejoin="round" opacity=".75" vector-effect="non-scaling-stroke"/>
    <g id="france-internal-boundaries" fill="none" stroke="#c9a063" stroke-width=".72" stroke-linecap="round" stroke-linejoin="round" opacity=".30" vector-effect="non-scaling-stroke">
    <path d="M 268.088 211.707 L 358.527 250.732 L 455.426 270.244 L 520.026 231.220 L 616.925 221.463 L 720.284 182.439"/>
    <path d="M 119.509 309.268 L 190.568 377.561 L 268.088 416.585 L 358.527 436.098 L 436.047 475.122 L 507.106 494.634"/>
    <path d="M 281.008 543.415 L 371.447 553.171 L 461.886 572.683 L 539.406 601.951 L 636.305 611.707 L 720.284 582.439 L 797.804 543.415"/>
    <path d="M 474.806 26.341 L 487.726 153.171 L 494.186 270.244 L 474.806 406.829 L 448.966 533.659 L 423.127 650.732 L 410.207 748.293"/>
    <path d="M 649.225 84.878 L 629.845 211.707 L 623.385 319.024 L 636.305 436.098 L 655.685 533.659 L 642.765 650.732 L 629.845 758.049"/>
    <path d="M 778.424 201.951 L 759.044 309.268 L 733.204 416.585 L 720.284 533.659 L 694.444 631.220 L 687.984 728.780"/>
    <path d="M 87.209 250.732 L 151.809 299.512 L 203.488 358.049 L 209.948 426.341"/>
    <path d="M 752.584 767.805 L 681.525 719.024 L 610.465 728.780 L 539.406 787.317 L 481.266 855.610"/>
    </g>
    <path id="corsica-glow" d="M 897.287 810.732 L 908.915 820.488 L 920.543 833.171 L 930.233 850.732 L 939.922 871.220 L 943.152 896.585 L 939.922 921.951 L 934.755 943.415 L 928.295 962.927 L 917.313 975.610 L 905.039 966.829 L 899.871 946.341 L 905.039 925.854 L 897.933 904.390 L 901.163 884.878 L 893.411 862.439 L 895.995 836.098 L 897.287 810.732 Z" fill="none" stroke="#b88748" stroke-width="8" stroke-linejoin="round" opacity=".16" filter="url(#goldGlow)"/>
    <path id="corsica" d="M 897.287 810.732 L 908.915 820.488 L 920.543 833.171 L 930.233 850.732 L 939.922 871.220 L 943.152 896.585 L 939.922 921.951 L 934.755 943.415 L 928.295 962.927 L 917.313 975.610 L 905.039 966.829 L 899.871 946.341 L 905.039 925.854 L 897.933 904.390 L 901.163 884.878 L 893.411 862.439 L 895.995 836.098 L 897.287 810.732 Z" fill="url(#land)" stroke="#c9a063" stroke-width="2.35" stroke-linejoin="round" vector-effect="non-scaling-stroke"/>
    <path id="corsica-highlight" d="M 897.287 810.732 L 908.915 820.488 L 920.543 833.171 L 930.233 850.732 L 939.922 871.220 L 943.152 896.585 L 939.922 921.951 L 934.755 943.415 L 928.295 962.927 L 917.313 975.610 L 905.039 966.829 L 899.871 946.341 L 905.039 925.854 L 897.933 904.390 L 901.163 884.878 L 893.411 862.439 L 895.995 836.098 L 897.287 810.732 Z" fill="none" stroke="#f5d28f" stroke-width=".85" stroke-linejoin="round" opacity=".72" vector-effect="non-scaling-stroke"/>
  </g>

  <g class="subtle-place-dots" fill="#f7d28c" opacity=".30">
    <circle cx="497.558" cy="235.454" r="2"/>
    <circle cx="657.991" cy="537.171" r="1.6"/>
    <circle cx="692.494" cy="777.902" r="1.6"/>
    <circle cx="438.902" cy="747.834" r="1.6"/>
    <circle cx="814.961" cy="737.541" r="1.6"/>
  </g>
</svg>
