<svg xmlns="http://www.w3.org/2000/svg" viewBox="0 0 128 128">
  <defs>
    <linearGradient id="stone" x1="0" y1="0" x2="1" y2="1">
      <stop offset="0" stop-color="#b9aa8e"/>
      <stop offset="0.48" stop-color="#6f675c"/>
      <stop offset="1" stop-color="#302e2c"/>
    </linearGradient>
    <linearGradient id="wood" x1="0" y1="0" x2="1" y2="1">
      <stop offset="0" stop-color="#8b5a2b"/>
      <stop offset="1" stop-color="#3b2414"/>
    </linearGradient>
    <filter id="glow" x="-40%" y="-40%" width="180%" height="180%">
      <feDropShadow dx="0" dy="5" stdDeviation="5" flood-color="#000" flood-opacity="0.55"/>
      <feDropShadow dx="0" dy="0" stdDeviation="4" flood-color="#ffc45f" flood-opacity="0.35"/>
    </filter>
  </defs>
  <g filter="url(#glow)">
    <ellipse cx="64" cy="106" rx="48" ry="12" fill="#1f1a16" opacity="0.45"/>
    <path d="M22 56h84v44H22z" fill="url(#wood)" stroke="#24160c" stroke-width="4"/>
    <path d="M26 48h12v14H26zm16-6h12v20H42zm16 6h12v14H58zm16-6h12v20H74zm16 6h12v14H90z" fill="url(#stone)" stroke="#332f2b" stroke-width="2"/>
    <path d="M36 40h56v64H36z" fill="url(#stone)" stroke="#272522" stroke-width="4"/>
    <path d="M36 40h12V28h10v12h12V28h10v12h12v16H36z" fill="url(#stone)" stroke="#272522" stroke-width="3"/>
    <path d="M52 104V83c0-8 6-14 12-14s12 6 12 14v21z" fill="#2b190e" stroke="#130b06" stroke-width="4"/>
    <path d="M64 20v24" stroke="#1a1a1a" stroke-width="4" stroke-linecap="round"/>
    <path d="M66 22c13-7 20 4 31-3v25c-11 7-18-4-31 3z" fill="#2f7ee6" stroke="#0e3368" stroke-width="2"/>
    <path d="M36 70h14v21H36zM78 70h14v21H78z" fill="#2062ad" stroke="#0e3368" stroke-width="2"/>
    <path d="M42 75v10m-4-5h8M84 75v10m-4-5h8" stroke="#d5d1c7" stroke-width="3" stroke-linecap="round"/>
    <path d="M42 49h44M42 61h44M42 73h9m26 0h9" stroke="#ffffff" opacity="0.13" stroke-width="2"/>
  </g>
</svg>
